<svg width="138" height="103" xmlns="http://www.w3.org/2000/svg" xmlns:xlink="http://www.w3.org/1999/xlink" xml:space="preserve" overflow="hidden"><g transform="translate(-610 -58)"><path d="M0 98.0425 0 80.4388 7.06523 80.4388C8.33183 80.4388 9.36094 80.5575 10.1427 80.8049 11.0431 81.0721 11.7061 81.5371 12.1514 82.2001 12.6165 82.9126 12.8639 83.8625 12.8639 85.0895 12.8837 85.99 12.666 86.7519 12.2306 87.3655 11.7655 87.979 11.152 88.3946 10.3703 88.5925L10.3703 88.6419C11.3697 88.8102 12.1316 89.2258 12.6956 89.8887 13.3586 90.621 13.6753 91.6204 13.6753 92.8969 13.6753 94.2427 13.4279 95.2916 12.9133 96.0733 12.4483 96.8056 11.7358 97.3201 10.8155 97.6368 9.98434 97.9039 8.90576 98.0524 7.58968 98.0524L0 98.0524ZM2.47382 87.8899 7.39178 87.8899C8.44068 87.8701 9.2224 87.692 9.68748 87.3259 10.2515 86.8905 10.5187 86.1483 10.5187 85.1291 10.5187 84.3672 10.3999 83.7834 10.1526 83.3678 9.88539 82.9522 9.48958 82.685 8.97502 82.5366 8.50994 82.4178 7.87665 82.3386 7.04544 82.3386L2.47382 82.3386 2.47382 87.8899ZM2.47382 89.7997 2.47382 96.1327 7.51052 96.1327C8.34172 96.1327 9.00471 96.0337 9.51926 95.8655 10.0833 95.6478 10.5187 95.3015 10.7859 94.8166 11.053 94.3515 11.2015 93.6885 11.2015 92.8375 11.2015 91.9865 11.053 91.373 10.7859 90.908 10.5187 90.4924 10.1229 90.1955 9.58853 90.0273 9.15314 89.8789 8.53963 89.8096 7.7579 89.8096L2.47382 89.8096Z" fill="#2B89ED" transform="matrix(1.00244 0 0 1 610.278 58)"/><path d="M20.7405 101.753C20.5723 102.119 20.3249 102.436 19.9786 102.654 19.6322 102.871 19.2661 103 18.8505 103L16.1392 103 16.1392 101.189 18.5636 101.189 20.0083 97.8446 14.3877 84.9807 16.9011 84.9807 21.1759 95.3509 21.2452 95.3509 25.5001 84.9807 28.0135 84.9807C25.5892 90.5814 23.1451 96.1525 20.7306 101.753Z" fill="#2B89ED" transform="matrix(1.00244 0 0 1 610.278 58)"/><path d="M48.289 85.6437 45.8152 85.6437C45.7954 84.8619 45.6667 84.2484 45.4688 83.813 45.2017 83.249 44.786 82.8334 44.1725 82.5662 43.4601 82.2496 42.5101 82.1012 41.2633 82.1012 40.0165 82.1012 39.1358 82.2496 38.4234 82.5168 37.7901 82.7641 37.325 83.1303 37.0578 83.5954 36.8401 83.9912 36.7115 84.476 36.7412 85.0895 36.7412 85.703 36.8896 86.1879 37.1568 86.5342 37.424 86.9004 37.9187 87.1675 38.6015 87.3852 39.1853 87.5832 40.0957 87.7811 41.3128 87.9691 42.708 88.167 43.7372 88.3352 44.4397 88.5034 45.4391 88.7211 46.2209 89.018 46.8146 89.3544 47.4776 89.7205 47.9921 90.2054 48.3088 90.7991 48.6551 91.4126 48.8233 92.1944 48.8233 93.1443 48.8431 94.876 48.2395 96.1723 47.0125 97.0331 45.7855 97.8841 43.9054 98.3294 41.3425 98.2997 38.9478 98.2997 37.137 97.8347 35.9199 96.9342 34.6236 95.9842 33.9606 94.4901 33.9408 92.4813L36.4146 92.4813C36.4344 93.362 36.6125 94.0745 36.9292 94.6286 37.2755 95.2124 37.8099 95.6577 38.5421 95.9249 39.2546 96.2217 40.2243 96.3603 41.4315 96.3603 42.7278 96.3603 43.7569 96.2118 44.509 95.9447 45.1918 95.6973 45.6865 95.3312 46.0032 94.8463 46.2703 94.4307 46.399 93.8667 46.399 93.2037 46.3792 92.4912 46.1813 91.9371 45.7855 91.5413 45.4193 91.1751 44.786 90.8585 43.9054 90.6111 43.2919 90.4429 42.1935 90.2153 40.63 89.9481 39.0369 89.7007 37.8198 89.4336 36.9886 89.1169 36.0386 88.7508 35.346 88.2857 34.9303 87.6722 34.5147 87.0587 34.2971 86.2572 34.2971 85.1984 34.2773 83.4172 34.9106 82.0913 36.2068 81.2403 37.3547 80.508 38.9973 80.1419 41.1248 80.1419 42.5695 80.1419 43.7372 80.2606 44.6475 80.508 45.7756 80.8247 46.6266 81.3392 47.2401 82.1012 47.9031 82.9522 48.2692 84.1297 48.3187 85.6239Z" fill="#2B89ED" transform="matrix(1.00244 0 0 1 610.278 58)"/><path d="M52.8408 87.1577 52.9101 87.1577C53.2267 86.3957 53.7908 85.7921 54.5527 85.3765 55.3146 84.9609 56.1953 84.7432 57.1947 84.7135 59.253 84.6937 60.7867 85.2479 61.8158 86.3957 62.8153 87.5436 63.3298 89.2554 63.3298 91.5314 63.3298 93.8073 62.8153 95.5192 61.7664 96.667 60.7175 97.8149 59.1738 98.3789 57.1749 98.3096 56.1755 98.2898 55.2948 98.0623 54.5824 97.6467 53.8204 97.2311 53.2861 96.6472 52.92 95.8853L52.8507 95.8853 52.8507 103 50.555 103 50.555 84.9807 52.8507 84.9807 52.8507 87.1577ZM53.8996 95.153C54.5824 95.9645 55.6115 96.3504 57.0067 96.3504 58.3723 96.3702 59.4014 95.9546 60.0644 95.153 60.7274 94.3416 61.0638 93.1245 61.0638 91.4819 61.0638 89.8393 60.7175 88.6419 60.0644 87.8404 59.3816 87.029 58.3822 86.6431 57.0364 86.6629 55.6412 86.6629 54.6121 87.0587 53.9293 87.8602 53.2168 88.6716 52.8804 89.869 52.8804 91.5017 52.8804 93.1344 53.2267 94.3614 53.9095 95.1432Z" fill="#2B89ED" transform="matrix(1.00244 0 0 1 610.278 58)"/><path d="M77.0051 92.4417 66.813 92.4417C66.9317 93.7083 67.2978 94.688 67.9113 95.3509 68.5941 96.0832 69.5737 96.4493 70.8205 96.4493 71.533 96.4493 72.1168 96.3801 72.5522 96.2019 72.9876 96.0238 73.3636 95.7863 73.6308 95.4697 73.8782 95.2025 74.0959 94.8067 74.2641 94.3218L76.7082 94.3218C76.3124 95.6676 75.6791 96.667 74.7787 97.3003 73.8287 97.9633 72.5027 98.2997 70.8205 98.2997 68.7425 98.2997 67.1494 97.7159 66.051 96.5186 65.0021 95.341 64.4579 93.6786 64.4579 91.5116 64.4579 89.3445 64.9922 87.6722 66.051 86.5046 67.1494 85.3072 68.7623 84.7234 70.87 84.7234 72.9777 84.7234 74.5412 85.3072 75.5604 86.5046 76.54 87.6524 77.0249 89.3148 77.0249 91.5116 77.0249 91.7095 77.0249 92.0261 77.0051 92.4417ZM74.7094 90.6606C74.6401 89.3643 74.2938 88.3649 73.6803 87.6821 73.0173 86.9499 72.0871 86.5837 70.8403 86.5837 69.5935 86.5837 68.6139 86.9499 67.9113 87.6821 67.2483 88.3946 66.8822 89.3643 66.813 90.6606L74.7094 90.6606Z" fill="#2B89ED" transform="matrix(1.00244 0 0 1 610.278 58)"/><path d="M80.8742 87.1577 80.9731 87.1577C81.2403 86.3957 81.7054 85.8119 82.3881 85.3963 83.1995 84.9312 84.2979 84.6838 85.7327 84.6838L86.4947 84.6838 86.4947 86.6134 85.7327 86.6134C84.6344 86.5936 83.7537 86.7124 83.0709 86.9597 82.3386 87.2566 81.8043 87.7217 81.4283 88.3748 81.0622 89.0378 80.8643 89.9184 80.8643 91.0663L80.8643 98.0326 78.5686 98.0326 78.5686 84.951 80.8643 84.951 80.8643 87.1478Z" fill="#2B89ED" transform="matrix(1.00244 0 0 1 610.278 58)"/><path d="M90.8387 81.7054C90.8387 82.1012 90.72 82.4178 90.4429 82.6553 90.1757 82.9225 89.8294 83.0511 89.4435 83.0511 89.0575 83.0511 88.7112 82.9324 88.444 82.6553 88.1769 82.3881 88.0284 82.0715 88.0284 81.7054 88.0284 81.3392 88.1769 81.0226 88.444 80.7554 88.7112 80.4882 89.0575 80.3596 89.4435 80.3596 89.8294 80.3596 90.1757 80.4783 90.4429 80.7554 90.7101 81.0325 90.8387 81.3392 90.8387 81.7054ZM90.5913 84.9807 88.2956 84.9807 88.2956 98.0326 90.5913 98.0326 90.5913 84.9807Z" fill="#2B89ED" transform="matrix(1.00244 0 0 1 610.278 58)"/><path d="M92.5605 94.5C92.5605 93.5203 92.8276 92.7386 93.3422 92.1251 93.8073 91.6105 94.4901 91.2246 95.4202 90.8981 96.0832 90.6804 97.0628 90.4627 98.3987 90.2351L98.9825 90.1361C99.9819 89.9679 100.665 89.8195 101.041 89.6711 101.625 89.4534 101.921 89.1565 101.941 88.7409 101.991 87.979 101.773 87.3951 101.278 87.029 100.783 86.6629 100.012 86.4947 98.933 86.4947 97.7852 86.4947 96.9045 86.6629 96.291 87.0092 95.5785 87.4248 95.2124 88.1373 95.1432 89.107L92.8672 89.107C92.9365 87.6623 93.55 86.5441 94.6979 85.7822 95.7962 85.0697 97.2113 84.7036 99.0023 84.7036 100.793 84.7036 102.06 85.05 102.911 85.7525 103.792 86.4848 104.227 87.6326 104.227 89.2258L104.227 96.1723 105.207 96.1723 105.207 97.9534 103.792 97.9534C103.307 97.9534 102.891 97.7852 102.545 97.4389 102.198 97.0925 102.03 96.6769 102.03 96.192L102.03 95.8457 101.961 95.8457C101.694 96.5087 101.199 97.043 100.467 97.4586 99.6158 97.9237 98.557 98.1711 97.2904 98.1711 95.6478 98.1909 94.4505 97.8742 93.6984 97.2706 92.9365 96.6571 92.5506 95.727 92.5506 94.4802ZM94.9353 94.4703C94.9353 95.2322 95.2025 95.7369 95.7665 96.0634 96.2019 96.2811 96.8451 96.4097 97.6961 96.4097 98.844 96.39 99.7939 96.1624 100.536 95.6973 101.486 95.0838 101.951 94.1338 101.951 92.8375L101.951 91.0069C101.803 91.1751 101.387 91.373 100.724 91.5413 100.358 91.66 99.7247 91.7887 98.8638 91.9371L98.6164 91.9865C97.7654 92.1548 97.1222 92.3032 96.6868 92.4516 96.103 92.6693 95.6577 92.9167 95.3905 93.2136 95.0739 93.5302 94.9255 93.9755 94.9255 94.4802Z" fill="#2B89ED" transform="matrix(1.00244 0 0 1 610.278 58)"/><path d="M72.6611 70.0586 63.2506 70.0586 56.4427 54.6516 16.4163 54.6516 9.50937 70.0586 0 70.0586 31.5264 0 41.1347 0 72.6611 70.0586ZM19.8203 46.5474 52.9497 46.5474 36.3256 8.71774 19.8104 46.5474Z" fill="#2B89ED" transform="matrix(1.00244 0 0 1 610.278 58)"/><path d="M120.386 62.0731 82.8334 62.0731 72.285 38.6708 108.828 38.6708 105.187 30.6853 68.6832 30.6853 58.4613 7.98549 95.6676 7.98549 92.0261 0 52.7913 0 52.7913 0 45.7657 0 77.3316 70.0685 79.4591 70.0685 86.4254 70.0685 124.027 70.0685 120.386 62.0731Z" fill="#2B89ED" transform="matrix(1.00244 0 0 1 610.278 58)"/><path d="M128.005 70.0685 96.4097 0 105.513 0 137.109 70.0784 128.005 70.0685Z" fill="#2B89ED" transform="matrix(1.00244 0 0 1 610.278 58)"/></g></svg>