<?xml version="1.0" encoding="UTF-8"?>
<svg id="Lager_1" xmlns="http://www.w3.org/2000/svg" version="1.1" viewBox="0 0 655 387.6">
  <!-- Generator: Adobe Illustrator 30.2.1, SVG Export Plug-In . SVG Version: 2.1.1 Build 1)  -->
  <defs>
    <style>
      .st0 {
        fill: #007cff;
      }
    </style>
  </defs>
  <path class="st0" d="M64.1,253.1c-32.7,0-59.3-26.5-59.3-59.3s26.5-59.3,59.3-59.3,59.3,26.5,59.3,59.3-26.5,59.3-59.3,59.3ZM386.8,193.8c0-32.7-26.5-59.3-59.3-59.3s-59.3,26.5-59.3,59.3,26.5,59.3,59.3,59.3,59.3-26.5,59.3-59.3ZM255.1,62.1c0-32.7-26.5-59.3-59.3-59.3s-59.3,26.5-59.3,59.3,26.5,59.3,59.3,59.3,59.3-26.5,59.3-59.3ZM255.1,325.5c0-32.7-26.5-59.3-59.3-59.3s-59.3,26.5-59.3,59.3,26.5,59.3,59.3,59.3,59.3-26.5,59.3-59.3ZM650.2,193.8c0-32.7-26.5-59.3-59.3-59.3s-59.3,26.5-59.3,59.3,26.5,59.3,59.3,59.3,59.3-26.5,59.3-59.3ZM518.5,62.1c0-32.7-26.5-59.3-59.3-59.3s-59.3,26.5-59.3,59.3,26.5,59.3,59.3,59.3,59.3-26.5,59.3-59.3ZM518.5,325.5c0-32.7-26.5-59.3-59.3-59.3s-59.3,26.5-59.3,59.3,26.5,59.3,59.3,59.3,59.3-26.5,59.3-59.3Z"/>
</svg>